<?xml version="1.0" encoding="UTF-8"?>
<!DOCTYPE svg PUBLIC "-//W3C//DTD SVG 1.1//EN" "http://www.w3.org/Graphics/SVG/1.1/DTD/svg11.dtd">
<svg version="1.1" xmlns="http://www.w3.org/2000/svg" xmlns:xlink="http://www.w3.org/1999/xlink" x="0" y="0" width="460" height="130" viewBox="0, 0, 460, 130">
  <g id="Background">
    <path d="M98.02,0 L98.02,25 L109.08,25 L109.08,2 L238.287,2 L238.287,25 L460,25 L460,112 L98.02,112 L98.02,130 L3,130 L3,0 L98.02,0 z" fill="#FFFFFF"/>
  </g>
  <g id="Outer">
    <g id="washington-examiner-text">
      <path d="M452.202,39.544 C451.323,45.862 448.289,51.043 438.559,51.801 L439.946,52.435 C448.478,52.306 452.266,46.618 453.086,40.306 L452.202,39.544" fill="#1A1919"/>
      <path d="M440.325,82.885 L437.042,86.174 L430.725,82.252 L430.725,46.747 L431.229,46.112 C431.743,46.712 432.291,47.194 432.871,47.631 L432.871,80.359 L434.01,80.865 L434.01,48.39 C435.384,49.138 436.934,49.53 438.683,49.53 C446.009,49.53 449.547,44.665 450.309,38.281 L449.929,38.155 C448.635,38.828 447.402,39.166 445.251,39.166 C442.222,39.166 440.578,37.145 439.569,35.123 L430.093,44.979 L419.226,35.123 L406.965,47.252 L408.233,48.514 L411.772,45.229 L413.283,46.874 L409.875,50.285 L410.76,51.17 L414.17,47.757 L416.825,50.414 L416.825,83.135 L414.17,85.664 L414.17,85.918 L429.715,96.156 L441.587,84.15 L440.325,82.885" fill="#1A1919"/>
      <path d="M431.478,97.541 L432.495,98.304 L444.119,86.553 L443.235,85.664 L431.478,97.541" fill="#1A1919"/>
      <path d="M386.625,70.377 L386.625,77.197 L387.766,77.957 L387.766,71.26 L409.875,60.265 L409.244,59.258 L386.625,70.377" fill="#1A1919"/>
      <path d="M389.786,97.541 L390.795,98.304 L406.711,82.129 L405.831,81.242 L389.786,97.541" fill="#1A1919"/>
      <path d="M357.562,81.75 L358.705,82.252 L358.705,50.414 L360.595,48.515 L359.71,47.757 L357.562,49.908 L357.562,81.75" fill="#1A1919"/>
      <path d="M362.621,83.01 L359.587,86.043 L355.416,83.642 L355.416,48.893 L357.691,46.492 L357.691,46.24 L339.369,35.123 L329.515,45.107 L318.141,35.123 L305.886,47.378 L307.148,48.643 L310.559,45.229 L312.199,46.747 L308.791,50.285 L309.804,51.172 L313.087,47.631 L315.742,50.029 L315.742,85.664 L313.087,88.064 L313.087,88.32 L324.712,96.154 L333.684,86.931 L333.684,86.674 L329.641,84.15 L329.641,47.506 L332.164,44.726 L334.06,46.112 L331.787,48.515 L331.787,82.631 L332.925,83.263 L332.925,49.022 L334.947,46.874 L341.519,51.551 L341.519,88.824 L352.132,96.154 L363.884,84.275 L362.621,83.01" fill="#1A1919"/>
      <path d="M354.151,97.541 L355.163,98.304 L366.413,86.674 L365.526,85.789 L354.151,97.541" fill="#1A1919"/>
      <path d="M326.485,97.541 L327.366,98.304 L336.593,88.824 L335.705,88.064 L326.485,97.541" fill="#1A1919"/>
      <path d="M299.947,81.75 L301.085,82.379 L301.085,50.414 L302.852,48.643 L301.967,47.886 L299.947,49.908 L299.947,81.75" fill="#1A1919"/>
      <path d="M304.748,82.885 L301.463,86.174 L297.42,83.642 L297.42,48.643 L299.568,46.619 L299.568,46.369 L286.048,35.123 L273.667,47.378 L274.927,48.643 L278.338,45.229 L279.982,46.874 L276.572,50.285 L277.455,51.17 L280.871,47.757 L283.523,50.285 L283.523,84.781 L281.376,87.053 L281.376,87.306 L294.134,96.154 L305.886,84.019 L304.748,82.885" fill="#1A1919"/>
      <path d="M296.409,97.541 L297.294,98.304 L308.792,86.553 L307.906,85.664 L296.409,97.541" fill="#1A1919"/>
      <path d="M268.485,81.621 L269.623,82.252 L269.623,50.285 L271.01,48.769 L270.126,48.012 L268.485,49.908 L268.485,81.621" fill="#1A1919"/>
      <path d="M264.947,97.541 L265.957,98.304 L277.583,86.295 L276.572,85.41 L264.947,97.541" fill="#1A1919"/>
      <path d="M273.667,82.885 L270.506,86.174 L266.337,83.642 L266.337,48.893 L268.611,46.493 L268.611,46.369 L250.291,35.123 L240.559,44.979 L224.767,35.123 L214.658,45.357 L203.283,35.123 L191.027,47.378 L192.291,48.643 L195.579,45.229 L197.219,46.874 L193.935,50.285 L194.817,51.17 L198.103,47.757 L200.758,50.539 L200.758,85.664 L198.232,88.193 L198.232,88.32 L209.223,96.404 L218.699,86.553 L218.699,86.422 L214.658,83.894 L214.658,47.757 L217.436,44.979 L219.331,46.24 L216.809,48.769 L216.809,82.129 L217.943,82.758 L217.943,49.272 L220.215,46.874 L226.533,50.918 L226.533,85.539 L223.883,88.193 L223.883,88.32 L235.633,96.154 L244.603,86.801 L244.603,86.674 L240.434,84.275 L240.434,47.506 L242.961,44.854 L244.857,46.24 L242.58,48.643 L242.58,82.631 L243.72,83.135 L243.72,49.15 L245.742,46.999 L252.312,51.17 L252.312,88.824 L263.052,96.154 L274.927,84.019 L273.667,82.885" fill="#1A1919"/>
      <path d="M237.4,97.416 L238.413,98.304 L247.382,88.953 L246.5,88.193 L237.4,97.416" fill="#1A1919"/>
      <path d="M210.994,97.924 L211.88,98.683 L221.733,88.574 L220.726,87.814 L210.994,97.924" fill="#1A1919"/>
      <path d="M185.721,81.496 L186.857,82.129 L186.857,50.285 L188.754,48.643 L187.997,47.886 L185.721,49.78 L185.721,81.496" fill="#1A1919"/>
      <path d="M182.688,97.541 L183.575,98.304 L195.07,86.674 L194.187,85.789 L182.688,97.541" fill="#1A1919"/>
      <path d="M132.653,51.551 L127.22,60.642 L135.688,75.685 C137.286,78.525 138.214,79.599 138.973,80.103 L139.352,79.724 C138.591,78.523 137.646,77.15 136.571,75.178 C136.571,75.178 130.813,64.617 128.609,60.642 L133.412,52.685 C139.917,52.685 146.869,47.947 147.061,39.671 L146.047,38.662 C146.047,45.841 140.488,51.929 132.653,51.551" fill="#1A1919"/>
      <path d="M115.848,39.04 L114.207,38.281 C115.47,39.419 116.83,41.01 118.248,43.842 L123.81,54.961 L124.442,53.949 L119.385,43.716 C117.738,40.379 116.859,39.797 115.848,39.04" fill="#1A1919"/>
      <path d="M142.129,80.486 L140.358,83.388 C137.328,83.135 135.591,80.613 132.402,74.799 L124.568,60.519 L131.388,49.151 C132.052,49.252 132.809,49.272 133.538,49.272 C140.487,49.272 143.459,44.221 144.026,37.146 L143.52,36.893 C142.005,38.031 140.358,38.661 137.455,38.661 C134.55,38.661 132.212,37.274 130.756,35.88 L124.568,45.862 C125.677,46.885 127.41,48.102 129.748,48.769 L123.683,58.879 L116.099,44.979 C111.655,36.829 109.216,35.754 104.349,35.754 L94.999,51.297 L96.639,52.308 L99.043,48.39 C99.911,48.484 100.647,48.734 101.317,49.022 L98.536,53.443 L99.546,54.074 L102.327,49.651 C103.096,50.234 103.727,50.953 104.475,52.308 L114.964,71.26 L108.139,82.756 C107.797,82.746 107.376,82.756 107.003,82.756 C99.418,82.756 95.189,90.086 94.622,95.519 L95.122,96.027 C96.768,94.508 98.851,93.498 102.202,93.498 C105.55,93.498 107.886,94.383 110.036,96.027 L116.48,85.41 C114.728,84.314 112.93,83.26 109.785,82.885 L115.848,72.779 L117.111,75.178 L113.447,81.115 L114.585,81.496 L117.741,76.314 L124.442,88.193 C126.98,92.693 131.137,96.156 134.42,96.66 L143.647,81.371 L142.129,80.486" fill="#1A1919"/>
      <path d="M136.698,97.668 L137.708,98.304 L144.913,85.918 L144.537,84.398 L136.698,97.668" fill="#1A1919"/>
      <path d="M111.931,97.287 L112.941,97.924 L119.259,87.306 L118.248,86.674 L111.931,97.287" fill="#1A1919"/>
      <path d="M384.476,44.095 L384.729,43.966 C385.362,45.329 385.998,46.617 386.625,47.886 L386.625,63.426 L387.766,62.922 L387.766,50.158 C389.857,54.199 392.04,57.955 394.586,62.164 L384.476,66.967 L384.476,44.095 z M402.925,78.588 L395.597,86.043 L384.476,78.842 L384.476,68.986 L407.978,57.359 L394.839,35.251 C389.279,39.29 378.538,44.674 370.578,47.886 L370.578,80.99 L368.052,82.885 L368.052,83.135 L387.891,96.156 L404.188,79.724 L402.925,78.588" fill="#1A1919"/>
      <path d="M169.679,59.258 C166.563,59.258 163.254,59.664 160.201,60.642 C158.349,55.219 156.154,51.17 152.111,47.757 L152.111,47.631 C153.173,47.918 154.271,48.011 155.271,48.011 C158.25,48.011 160.944,46.513 162.854,43.966 L164.749,45.23 C162.916,47.478 160.828,49.432 157.294,50.03 L157.925,50.916 C161.356,50.377 163.986,48.39 165.758,45.991 L169.679,48.514 L169.679,59.258 z M169.679,63.426 C163.21,63.426 160.453,68.478 160.453,74.545 C160.453,79.724 163.486,83.515 165.379,84.91 L166.264,84.398 C164.749,82.885 161.715,79.851 161.715,74.418 C161.715,68.986 164.307,64.564 169.679,64.564 L169.679,85.031 L165.254,87.814 C161.846,85.41 158.174,81.115 158.174,74.924 C158.174,65.826 162.976,61.152 169.679,61.152 L169.679,63.426 z M191.156,82.885 L188.246,85.916 L183.575,83.01 L183.575,48.893 L186.228,46.24 L186.228,45.991 L170.938,35.123 C167.213,38.911 164.449,40.811 161.593,40.811 C159.44,40.811 157.294,40.049 155.903,38.534 L149.334,47.378 L149.334,47.506 C154.054,51.078 157.172,55.73 158.809,61.152 C151.584,63.916 145.793,68.986 145.793,78.717 C145.793,88.32 151.933,94.164 155.903,96.281 L169.424,87.435 L171.191,88.824 L157.545,98.176 L158.558,98.804 L172.205,89.582 L180.793,96.156 L192.543,84.15 L191.156,82.885" fill="#1A1919"/>
      <path d="M79.933,26.701 L79.933,46.668 L81.359,46.668 L81.359,28.126 C91.026,27.336 97.521,19.729 98.789,11.963 L97.684,10.857 C96.26,19.551 89.007,26.701 79.933,26.701" fill="#1A1919"/>
      <path d="M79.933,66.629 L79.933,97.367 L81.359,97.847 L81.359,67.898 L86.429,67.898 L90.866,52.844 L89.916,51.736 L85.48,66.629 L79.933,66.629" fill="#1A1919"/>
      <path d="M24.165,17.667 C29.079,17.667 35.063,19.886 40.637,19.886 C42.18,19.886 44.284,19.661 46.029,18.935 L46.187,19.253 C44.482,20.261 42.855,21.265 41.272,22.264 C33.824,22.582 30.299,20.363 23.21,20.363 C17.82,20.363 15.288,23.215 13.07,27.495 L14.497,28.445 C16.555,24.008 19.247,21.947 23.37,21.947 C27.786,21.947 34.935,23.847 39.056,23.692 C28.756,30.343 23.842,35.636 23.842,45.239 L23.842,50.15 L22.892,50.15 C11.806,50.15 8.949,58.07 8.949,69.162 L10.058,69.64 C12.118,65.678 15.288,63.937 20.676,63.937 L23.842,63.937 L23.842,66.785 L20.356,66.785 C16.395,66.785 14.335,67.734 12.594,70.906 L14.021,71.543 C15.132,69.162 17.027,68.373 20.356,68.373 L23.842,68.373 L23.842,82.631 C23.842,91.187 20.952,95.304 18.364,96.838 L19.181,97.89 C30.006,93.82 39.53,85.642 39.53,74.236 L39.53,37.795 C39.53,27.037 50.031,18.773 62.506,8.797 L61.715,7.844 C60.13,8.716 58.385,9.272 55.533,9.272 C48.719,9.272 35.53,4.201 27.966,4.201 C14.497,4.201 10.362,15.444 8.633,24.954 L11.011,26.225 C13.543,20.363 16.943,17.667 24.165,17.667" fill="#1A1919"/>
      <path d="M80.886,124.935 L82.309,126.047 L97.363,100.853 L96.094,99.902 L80.886,124.935" fill="#1A1919"/>
      <path d="M75.025,50.15 L63.14,50.15 L63.14,17.035 L63.612,16.875 C64.285,17.66 65.021,18.401 65.834,19.094 L65.834,46.979 L67.263,46.979 L67.263,20.204 C69.437,21.749 72.034,22.971 75.025,23.534 L75.025,50.15 z M75.025,99.111 C66.943,96.101 57.647,94.834 47.294,94.834 C45.844,94.834 43.19,95.121 41.59,95.308 L41.59,95.148 C55.954,88.586 63.14,81.556 63.14,68.531 L63.14,63.777 L65.834,63.777 L65.834,70.429 C65.834,78.351 62.348,86.912 53.633,91.82 L55.691,91.978 C63.775,87.226 67.263,78.826 67.263,70.748 L67.263,63.777 L75.025,63.777 L75.025,99.111 z M91.66,96.416 L87.064,104.179 C84.688,102.756 79.933,100.695 77.397,99.902 L77.397,63.777 L82.945,63.777 L87.064,50.15 L77.397,50.15 L77.397,23.847 C77.919,23.885 78.447,23.847 78.982,23.847 C88.333,23.847 94.156,16.529 94.826,8.956 L94.354,8.637 C92.45,9.589 89.997,10.38 86.43,10.38 C83.186,10.38 78.032,7.133 74.707,3.408 C58.701,17.193 44.92,26.47 44.92,37.635 L44.92,74.709 C44.92,85.783 38.345,92.873 33.35,96.89 C20.994,100.539 9.269,109.256 8,123.353 L10.058,124.303 C12.334,117.478 17.663,113.533 26.38,112.894 L26.38,113.054 C18.3,116.383 14.814,119.713 12.278,126.049 L13.703,127 C16.555,120.187 21.308,115.59 32.243,112.263 C34.777,111.945 38.133,111.627 40.797,111.627 C57.594,111.627 72.329,118.603 78.666,123.197 L94.036,97.845 L91.66,96.416" fill="#1A1919"/>
      <path d="M270.474,30.434 C270.458,30.51 270.435,30.584 270.392,30.653 C270.392,30.653 270.425,30.571 270.474,30.434" fill="#1A1919"/>
      <path d="M280.778,29.272 C280.778,29.272 281.626,29.244 282.945,28.067 C282.267,28.653 281.542,29.09 280.778,29.272" fill="#1A1919"/>
      <path d="M276.9,28.407 C276.9,28.407 277.746,28.379 279.062,27.207 C278.385,27.789 277.663,28.227 276.9,28.407" fill="#1A1919"/>
      <path d="M296.552,29.272 C295.791,29.092 295.07,28.656 294.394,28.075 C295.708,29.244 296.552,29.272 296.552,29.272" fill="#1A1919"/>
      <path d="M300.427,28.407 C299.664,28.227 298.941,27.789 298.263,27.205 C299.581,28.379 300.427,28.407 300.427,28.407" fill="#1A1919"/>
      <path d="M115.653,9.066 L118.213,9.066 L120.154,18.509 L120.194,18.509 L122.174,9.066 L124.835,9.066 L126.835,18.509 L126.875,18.509 L128.796,9.066 L131.376,9.066 L128.216,23.509 L125.555,23.509 L123.535,13.628 L123.495,13.628 L121.314,23.509 L118.674,23.509 L115.653,9.066" fill="#1A1919"/>
      <path d="M135.693,18.028 L138.434,18.028 L137.094,12.187 L137.054,12.187 L135.693,18.028 z M131.753,23.509 L135.333,9.066 L138.874,9.066 L142.355,23.509 L139.714,23.509 L139.014,20.468 L135.193,20.468 L134.413,23.509 L131.753,23.509" fill="#1A1919"/>
      <path d="M150.354,13.088 C149.894,11.727 149.294,11.147 148.334,11.147 C147.354,11.147 146.813,11.747 146.813,12.727 C146.813,14.908 152.975,15.068 152.975,19.589 C152.975,22.069 151.274,23.71 148.374,23.71 C146.133,23.71 144.393,22.489 143.653,19.649 L146.374,19.068 C146.693,20.809 147.694,21.429 148.514,21.429 C149.474,21.429 150.214,20.789 150.214,19.709 C150.214,16.988 144.053,16.948 144.053,12.907 C144.053,10.426 145.533,8.866 148.394,8.866 C150.854,8.866 152.354,10.327 152.835,12.367 L150.354,13.088" fill="#1A1919"/>
      <path d="M155.533,23.509 L155.533,9.066 L158.293,9.066 L158.293,14.828 L162.194,14.828 L162.194,9.066 L164.955,9.066 L164.955,23.509 L162.194,23.509 L162.194,17.268 L158.293,17.268 L158.293,23.509 L155.533,23.509" fill="#1A1919"/>
      <path d="M168.553,9.066 L171.313,9.066 L171.313,23.509 L168.553,23.509 z" fill="#1A1919"/>
      <path d="M174.913,23.509 L174.913,9.066 L177.934,9.066 L181.774,17.629 L181.814,17.629 L181.814,9.066 L184.335,9.066 L184.335,23.509 L181.694,23.509 L177.474,14.187 L177.434,14.187 L177.434,23.509 L174.913,23.509" fill="#1A1919"/>
      <path d="M194.674,22.309 C193.934,23.149 193.134,23.71 192.093,23.71 C189.413,23.71 187.532,22.43 187.532,18.869 L187.532,13.708 C187.532,10.146 189.413,8.866 192.093,8.866 C194.914,8.866 196.435,10.487 196.534,13.767 L193.774,13.767 C193.774,11.907 193.094,11.307 192.093,11.307 C190.993,11.307 190.293,11.747 190.293,13.347 L190.293,19.228 C190.293,20.829 190.993,21.269 192.093,21.269 C193.134,21.269 193.774,20.509 193.774,19.268 L193.774,18.388 L191.833,18.388 L191.833,16.108 L196.534,16.108 L196.534,23.509 L195.094,23.509 L194.674,22.309" fill="#1A1919"/>
      <path d="M208.455,9.066 L208.455,11.507 L205.234,11.507 L205.234,23.509 L202.473,23.509 L202.473,11.507 L199.252,11.507 L199.252,9.066 L208.455,9.066" fill="#1A1919"/>
      <path d="M213.413,19.228 C213.413,20.829 214.113,21.269 215.213,21.269 C216.314,21.269 217.014,20.829 217.014,19.228 L217.014,13.347 C217.014,11.747 216.314,11.307 215.213,11.307 C214.113,11.307 213.413,11.747 213.413,13.347 L213.413,19.228 z M210.652,13.708 C210.652,10.146 212.533,8.866 215.213,8.866 C217.894,8.866 219.774,10.146 219.774,13.708 L219.774,18.869 C219.774,22.43 217.894,23.71 215.213,23.71 C212.533,23.71 210.652,22.43 210.652,18.869 L210.652,13.708" fill="#1A1919"/>
      <path d="M222.573,23.509 L222.573,9.066 L225.593,9.066 L229.434,17.629 L229.474,17.629 L229.474,9.066 L231.995,9.066 L231.995,23.509 L229.354,23.509 L225.133,14.187 L225.093,14.187 L225.093,23.509 L222.573,23.509" fill="#1A1919"/>
    </g>
  </g>
</svg>
