<?xml version="1.0" encoding="utf-8"?>
<!-- Generator: Adobe Illustrator 18.1.1, SVG Export Plug-In . SVG Version: 6.00 Build 0)  -->
<svg version="1.1" id="Layer_1" xmlns="http://www.w3.org/2000/svg" xmlns:xlink="http://www.w3.org/1999/xlink" x="0px" y="0px"
	 viewBox="0 0 445.3 493.1" enable-background="new 0 0 445.3 493.1" xml:space="preserve">
<g>
	<path fill="#E6E7E8" d="M272,203.4c-0.4-29.2-2-57.2-22.6-66.2C266.5,149.7,265.8,180,272,203.4"/>
	<path fill="#E6E7E8" d="M296.2,209.8c-1.6-29.6-9-62-32.3-64.6C287.4,154,287.9,185.9,296.2,209.8"/>
	<path fill="#E6E7E8" d="M317.2,217.9c-4.7-20.6-9.1-50.1-24.2-54.9C307.8,174.5,306.9,201.8,317.2,217.9"/>
	<path fill="#E6E7E8" d="M238.1,163h-6.5c-2.5,3.3-2.5,14.5,0,17.8h8.1C239.2,174.9,241.1,166.5,238.1,163"/>
	<path fill="#E6E7E8" d="M263.9,184c0.7-7.1-0.4-12.5-3.2-16.1h-6.5C253.8,177,253.3,186,263.9,184"/>
	<path fill="#E6E7E8" d="M286.5,190.5c0.5-8.6-0.9-15.3-8.1-16.1C276.6,178.6,277.2,192.2,286.5,190.5"/>
	<path fill="#E6E7E8" d="M307.5,200.2c-0.6-6.4-2.3-11.7-4.8-16.1h-4.8C298.8,191.6,299.7,199.3,307.5,200.2"/>
	<path fill="#E6E7E8" d="M325.2,211.5c-1.8-5.3-3.6-18.9-9.7-14.5C319.6,201,318.1,210.5,325.2,211.5"/>
	<path fill="#E6E7E8" d="M0,477c20.6,5.4,41.2,10.9,62,16.1h35.6c-33-7.9-65.3-16.5-97.6-25V477z"/>
	<path fill="#E6E7E8" d="M422.1,427.7c6.6,6,8.4,31.5,4.8,37.1C423.3,454.5,422.8,441.1,422.1,427.7 M409.2,476.2
		c-0.1-23.6-4.9-42.5-4.8-66.2c1.9-0.3,2.9,0.4,3.2,1.6C406.3,430.2,420.5,463.1,409.2,476.2 M388.2,435.8
		c-5.1,15.5,8.8,42.7,0,56.5c-6.6-28.4-9.8-68.7-8.1-100.1c5.7,5,2.9,18.6,4.8,27.4c9.5,3.4,11.4,14.4,11.3,27.4
		C392.7,444.2,395.5,435,388.2,435.8 M233.2,440.7c7.9,3.9,17.7,6,25.8,9.7c6.6-20.9-6.4-43.7,3.2-63c1.2,21.4,0.6,44.6,3.2,64.6
		c7.2-21.1-5.6-65.9,3.2-88.8c7.4,24.4,4.9,58.6,6.5,88.8c0.8,4.6,5.1,5.7,9.7,6.5C270.9,461.8,246.4,448.8,233.2,440.7 M230,442.3
		c-23.8-2-37.5-14.1-58.1-19.4c12.5-8-1.9-42.8,8.1-53.3c6.2,13.1,3,35.8,4.8,53.3c8.9,8.3,25,9.4,37.1,14.5
		c1.4-24.1-2.6-57.8,1.6-74.2c9.2,7.5,4.3,24.1,4.8,37.1C229,414.3,231.3,428.9,230,442.3 M131.6,456.8c0.7-26.7,0.8-54.1,3.2-79.1
		h4.8C138.5,401.2,150.1,448.8,131.6,456.8 M128.3,276c6.2,3,1.6,8.3,9.7,3.2c-9.2,5.9,4.8,34.9-9.7,35.5V276z M123.5,316.4
		c-3.5,0.2-0.8-19.6-1.6-27.4C125.3,288.8,122.6,308.6,123.5,316.4 M102.5,324.4c0.9-10.4-1.9-24.5,1.6-32.3
		C107.1,294,107.9,320.4,102.5,324.4 M102.5,460c-19-2.4-0.9-39.8-6.5-61.3c-1.2-4.4,3.2-3.2,3.2-6.5
		C106.7,408.5,100.4,438.5,102.5,460 M62.1,448.7c6.4-3.6,14.9,4.5,22.6,4.8C84.4,457.1,68.7,449.7,62.1,448.7 M150.9,266.3
		c5.9-1.7,13.4-7.5,17.8-1.6c-1.1,7.3-2.3,27.6-1.6,42c-5.8,0.6-10.8,2.1-16.1,3.2V266.3z M293,250.2c2-5.2-5.2-1.2-3.2-6.5
		c5.3,0.6,5,6.8,8.1,9.7c9.6-1.1,14.6,2,21,6.5c1.3-0.3,1.6-1.6,3.2-1.6c-0.7-1.4-1.4-2.9-3.2-3.2c4.7-4.6,7.2,6.7,9.7,9.7
		c8.3-1-4.8-6.7,3.2-6.5c2.9,2.5-0.3,11.1,6.5,9.7c0-10.9,1.6,1.2,8.1,4.8c2.2-0.1,2.1-1.7,1.2-3.1c-1-1-1.9-1.6-2.8-1.8
		c0.9-0.2,2.1,0.7,2.8,1.8c5.4,5.1,12.9,19,21.4,16c2,8.8,14.6,17.9,21,30.7c-34.4-50.1-120.8-84.3-213.1-66.2
		C205.6,236.3,264.8,242,293,250.2 M221.9,209.8c4.8,5.3,25.4,13.6,30.7,3.2c7.9,5.1,17.6,8.2,29.1,9.7c2-0.4,1.6-3.2,0-3.2
		c5.2-4.7,6.3,4.1,11,6.2c1.2,0.1,2.4,0.2,3.5,0.3c-1.4,0.3-2.5,0.2-3.5-0.3c-20.5-1.7-48.1-7.8-74-7.8
		C217.3,212.8,220.1,211.8,221.9,209.8 M260.7,209.8c-2.8-3.1-13.2,1.4-12.9-4.8C250.6,208.1,261,203.6,260.7,209.8 M304.3,221.1
		c-8.1,3.2-15.2-8.4-25.8-8.1C287.2,209.1,294.7,220.4,304.3,221.1 M309.1,227.6c7-1,5.1,6.8,11.3,6.5
		C318.5,236.3,307.4,234.2,309.1,227.6 M393,345.4c-4.9-0.5-6.5-9.1-3.2-12.9C396.2,331.5,391.7,341.4,393,345.4 M380.1,313.1
		c6.1,4.7,4.5,17,4.8,27.4C379.4,335.4,381.5,322.5,380.1,313.1 M372.1,309.9c-3.7,4.4-0.6,15.6-1.6,22.6
		c-8.6-2.6-3.4-24.6-6.5-37.1c11.9,6.9,13.6,24.1,14.5,42C371.4,333.1,378.4,314.9,372.1,309.9 M354.3,295.4
		c-10,2.1-2.2,20.5-1.6,27.4c-0.9,3.4-6.1-2.3-9.7-1.6c4.6-12.5-0.8-28.1,0-42c17.3,5.8,18.3,27.9,21,48.4
		C354.9,331.7,363.9,300.2,354.3,295.4 M331.7,280.9c-10,2.9-2.5,23.3-4.8,33.9c-7.4-0.1-11-4.1-19.4-3.2c8.1-5.7,5-36.9-3.2-42
		c-12,3-5.1,28.2-4.8,38.7c-8.9-0.4-15.7-2.9-24.8-3.2c-0.8,0.2-1.7,0.2-2.6,0c0.9,0,1.8,0,2.6,0c11.2-2.3,8.1-37.8-1-43.6
		c-14.9,4.3-4.7,27.2-6.5,42h-14.5c4.9-15.9-1.9-33.5,0-51.7c7.6,2.6,18.5,1.9,25.8,4.8c9.4,9.4,0.1,37.5,8.1,48.4
		c3.9-13.1-2.2-30,0-46.8c10,0.8,17.1,4.4,24.2,8.1c4.5,12.7,0.3,34.1,6.5,45.2c3.7-12.3-2.2-29,0-45.2
		c22.3,3.5,24.2,27.5,24.2,53.3C333.5,311.3,342.6,286.2,331.7,280.9 M249.4,300.2c-3.4,0.7-0.8-18.5-1.6-25.8
		C251.2,273.7,248.6,292.9,249.4,300.2 M236.5,259.9c-2.8,6.6-11.2,43.7,6.5,40.4c1.2,3.4-17.4,0.8-24.2,1.6v-50
		c11.7,0.7,28-3.2,29.1,8.1C247.3,268.1,241.3,252.6,236.5,259.9 M213.9,264.7c-2.5-2.3-3.2-6.5-9.7-4.8c-9.4,6.7-2.9,29.4-4.8,43.6
		h-16.1v-45.2C191.4,254,215.4,247.6,213.9,264.7 M433.4,443.9c6.2,1.9,2,14.1,3.2,21c20.1-29.4,1.7-66.5-17.8-85.5
		c-31-30.4-82.9-45.2-135.6-56.5c-6.8-1.5-19.3-0.2-1.6-1.6c38.1,5.5,72.4,14.7,100.1,30.7c-33.6-28.1-111.3-43-179.2-38.7
		c-22.1,1.4-40.7,9.4-59.7,8.1c3.3-10.5,17.6-9.5,27.4-11.3c109.5-20.1,229.6,15.7,266.3,85.6c-2.3-17.1-22-30.7-33.9-43.6
		c7-59.2-28.9-75.5-50-106.5c-6.9,1.8-12.1-3.5-16.1-1.6c-7.5-0.8-2.5-5.8-4.8-12.9c-6,7.1-14.4-5.3-24.2-8.1
		c2.6-4.1,7.8,2.9,11.3,3.2c-35.6-21.8-102.2-31.2-151.7-14.5c4.8-20.5,4.6-46,12.9-63c-20.6,5.2-29.2,36.4-29.1,67.8
		c-4.1,0.7-7.4,2.3-9.7,4.8c8.4-11.5,7.4-46.4,17.8-61.3c-20,11.2-24.5,37.9-30.7,63c-1.8-14.8,5.1-34.7,11.3-46.8
		c-14.4,6.6-20.6,35.3-25.8,56.5c-0.9-13.3,4.6-34.1,12.9-43.6c-14.7,9.5-26.6,35.8-32.3,59.7c-20.4,23.5-41.7,40.1-46.8,72.6
		c-1.3,8.6,3.8,21.1,1.6,30.7c-2.1,9.4-17.1,16.6-24.2,25.8c-11.9,15.4-16.5,31.9-19.4,50c14.1,9.1,35.8,10.4,51.7,17.8
		c-18.2-2-37.4-9.3-57.3-15.3V455c18.9,6.2,39.1,11.1,58.9,16.4c4.1-3.4,3.2-11.9,3.2-19.4c17.4,3.1,31.2,9.7,48.4,12.9
		c-1.2,7.7,2.5,10.4,1.6,17.8c-2.7,2.9-5.4-1.4-11.3,0c-4.5,2.2,1.4,5.9,0.3,10.5H252c-28.3-8.5-56.9-17.8-85-25
		c30.2,5.2,61,15.2,91.9,25h26.4c-37.7-11.8-76.4-24.2-113.4-34.7c-0.4-10.6,2.8-17.6,1.6-29.1c5,2.5,11.6,3.4,16.1,6.5v17.8
		c12.2,6.7,28.5,9.1,42,14.5c3.7-2.8,0.6-12.3,1.6-17.8c6.4-0.5,8.1,3.7,14.5,3.2v17.8c10.9,7.4,28,8.6,40.4,14.5
		c3.7-2.8,0.6-12.3,1.6-17.8c5.1,0.8,9,2.8,12.9,4.8v16.1c3,1.6,6.4,2.9,9.9,4h28.9c-0.2-2.6-0.5-5.3-0.1-7.3
		c4.9-1.2,4.7,2.8,9.7,1.6c1.2,1.3,1.6,3.3,1.7,5.6h27.4c-15.2-3.9-29.3-8.9-40.4-16.9c-19.3,4.3-32.7-10-48.4-14.5
		c-4.8-2.7,5,0.6,6.5,1.6c6.5-21.2-7-53.1,1.6-71c7.3,1,6,13.3,6.5,19.4c1.4,17.8-1,39.6,3.2,54.9c8.2-25.6-7.2-72.2,1.6-98.5
		c8.3,28.9,5.1,69.2,9.7,101.7c3.1,2.8,8.4,3.4,12.9,4.8c1.9-21.8-2.7-51.1-3.2-75.9c5.1,0.2,7.1,3.7,12.9,3.2
		c1.9,8.9-4.6,9.4-4.8,16.1c6.2,19-4.1,54.7,12.9,63c2.9-29.8-6.9-69.5-3.2-100.1c7.3,20.2,8,58.3,11.3,85.5
		c0.7,5.6-3.9,16,4.8,17.8c0.2-19.6-2.3-50.4-4.8-72.6c6.2-2.9,17.1,3.3,17.8,11.3c-2.8,5.2-4.2-4.2-9.7-1.6
		c-4.2,20.5,3.5,42.7,3.2,64.6c1.6,5,11,2.3,12.7,7.3h48.3C431.4,493.1,432.2,453.1,433.4,443.9"/>
	<path fill="#E6E7E8" d="M0,493.1h49.9c-16.7-3.9-33.3-8.3-49.9-12.8V493.1z"/>
	<path fill="#E6E7E8" d="M207.4,93.6c7.2,4.1,1.3,21.3,3.2,30.7C203.9,119.8,209,103.3,207.4,93.6 M218.7,87.2
		c6.9,4.4,1.7,29.4,3.2,33.9C214.7,116,220.7,97.6,218.7,87.2 M228.4,98.5c3.3-2.1,0.9,15.2,1.6,21c3.7-8.1,0.6-23.1,1.6-33.9
		c8.1,7-1.3,31.4,6.5,38.7c-1.9-1.4-4.3-2.1-8.1-1.6C226.7,117.4,229.1,106.3,228.4,98.5 M175.1,205c7.6,0.1,12.2-2.8,19.4-3.2
		c5.4-21-5.2-57.9,14.5-64.6c-10.2,14-10,38.4-9.7,63c7.4-0.7,17.8,1.6,22.6-1.6v-61.3c-2.8-0.4-8.1,4.5-9.7,0
		c0.5-12.1,9.9,0.8,21-3.2c4.5,7.8,8.2,18.8,9.7,32.3c1.4,12.4-3.4,28.6,4.8,33.9c-0.4-19.1-2.2-50.4-9.7-67.8
		c6.7,1.3,10.4,3.8,14.5,1.6c-13.2-2.4-10.9-28.9-8.1-42c3.3,5.6-2.4,26.3,4.8,35.5c2.6-9.8-4.9-22.4,1.6-25.8
		c0.3,2.4-0.6,6,1.6,6.5c3.6-18.8-20.2-23.8-32.3-32.3c22.5-2.6,28.2,11.6,35.5,24.2c7.9-22-11.1-30.7-21-40.4
		c5.6-7.6-3.2-12.2-3.2-19.4c11-12-7.3-26.7-3.2-40.4c-4.7,1.5-5,1.5-9.7,0c1.8,11.4-4.9,26.3,1.6,38.7c-5.4,5.1-8.8,14.3-6.5,22.6
		C184.9,75.1,195,97.8,201,127.5c-1.7,5.9-15.2,8.4-11.3,14.5c-1.2-2.6,7.6-2.6,6.5,0C173.5,148.8,176.4,180.9,175.1,205"/>
	<path fill="#E6E7E8" d="M326.9,195.3c5.4,13.5,8.5,29.2,16.1,40.4C339.6,222.3,329.3,199,326.9,195.3"/>
</g>
</svg>
