<?xml version="1.0" encoding="UTF-8"?>
<!DOCTYPE svg PUBLIC "-//W3C//DTD SVG 1.1//EN" "http://www.w3.org/Graphics/SVG/1.1/DTD/svg11.dtd">
<svg version="1.1" xmlns="http://www.w3.org/2000/svg" xmlns:xlink="http://www.w3.org/1999/xlink" x="0" y="0" width="446" height="124" viewBox="0, 0, 446, 124" class="washington-examiner-logo-text-only">
  <g id="Background"/>
  <g id="Layer_1">
    <path d="M444.202,36.544 C443.323,42.862 440.289,48.043 430.559,48.801 L431.946,49.435 C440.478,49.306 444.266,43.618 445.086,37.306 L444.202,36.544" fill="#1A1919"/>
    <path d="M432.325,79.885 L429.042,83.174 L422.725,79.252 L422.725,43.747 L423.229,43.112 C423.743,43.712 424.291,44.194 424.871,44.631 L424.871,77.359 L426.01,77.865 L426.01,45.39 C427.384,46.138 428.934,46.53 430.683,46.53 C438.009,46.53 441.547,41.665 442.309,35.281 L441.929,35.155 C440.635,35.828 439.402,36.166 437.251,36.166 C434.222,36.166 432.578,34.145 431.569,32.123 L422.093,41.979 L411.226,32.123 L398.965,44.252 L400.233,45.514 L403.772,42.229 L405.283,43.874 L401.875,47.285 L402.76,48.17 L406.17,44.757 L408.825,47.414 L408.825,80.135 L406.17,82.664 L406.17,82.918 L421.715,93.156 L433.587,81.15 L432.325,79.885" fill="#1A1919"/>
    <path d="M423.478,94.541 L424.495,95.304 L436.119,83.553 L435.235,82.664 L423.478,94.541" fill="#1A1919"/>
    <path d="M378.625,67.377 L378.625,74.197 L379.766,74.957 L379.766,68.26 L401.875,57.265 L401.244,56.258 L378.625,67.377" fill="#1A1919"/>
    <path d="M381.786,94.541 L382.795,95.304 L398.711,79.129 L397.831,78.242 L381.786,94.541" fill="#1A1919"/>
    <path d="M349.562,78.75 L350.705,79.252 L350.705,47.414 L352.595,45.515 L351.71,44.757 L349.562,46.908 L349.562,78.75" fill="#1A1919"/>
    <path d="M354.621,80.01 L351.587,83.043 L347.416,80.642 L347.416,45.893 L349.691,43.492 L349.691,43.24 L331.369,32.123 L321.515,42.107 L310.141,32.123 L297.886,44.378 L299.148,45.643 L302.559,42.229 L304.199,43.747 L300.791,47.285 L301.804,48.172 L305.087,44.631 L307.742,47.029 L307.742,82.664 L305.087,85.064 L305.087,85.32 L316.712,93.154 L325.684,83.931 L325.684,83.674 L321.641,81.15 L321.641,44.506 L324.164,41.726 L326.06,43.112 L323.787,45.515 L323.787,79.631 L324.925,80.263 L324.925,46.022 L326.947,43.874 L333.519,48.551 L333.519,85.824 L344.132,93.154 L355.884,81.275 L354.621,80.01" fill="#1A1919"/>
    <path d="M346.151,94.541 L347.163,95.304 L358.413,83.674 L357.526,82.789 L346.151,94.541" fill="#1A1919"/>
    <path d="M318.485,94.541 L319.366,95.304 L328.593,85.824 L327.705,85.064 L318.485,94.541" fill="#1A1919"/>
    <path d="M291.947,78.75 L293.085,79.379 L293.085,47.414 L294.852,45.643 L293.967,44.886 L291.947,46.908 L291.947,78.75" fill="#1A1919"/>
    <path d="M296.748,79.885 L293.463,83.174 L289.42,80.642 L289.42,45.643 L291.568,43.619 L291.568,43.369 L278.048,32.123 L265.667,44.378 L266.927,45.643 L270.338,42.229 L271.982,43.874 L268.572,47.285 L269.455,48.17 L272.871,44.757 L275.523,47.285 L275.523,81.781 L273.376,84.053 L273.376,84.306 L286.134,93.154 L297.886,81.019 L296.748,79.885" fill="#1A1919"/>
    <path d="M288.409,94.541 L289.294,95.304 L300.792,83.553 L299.906,82.664 L288.409,94.541" fill="#1A1919"/>
    <path d="M260.485,78.621 L261.623,79.252 L261.623,47.285 L263.01,45.769 L262.126,45.012 L260.485,46.908 L260.485,78.621" fill="#1A1919"/>
    <path d="M256.947,94.541 L257.957,95.304 L269.583,83.295 L268.572,82.41 L256.947,94.541" fill="#1A1919"/>
    <path d="M265.667,79.885 L262.506,83.174 L258.337,80.642 L258.337,45.893 L260.611,43.493 L260.611,43.369 L242.291,32.123 L232.559,41.979 L216.767,32.123 L206.658,42.357 L195.283,32.123 L183.027,44.378 L184.291,45.643 L187.579,42.229 L189.219,43.874 L185.935,47.285 L186.817,48.17 L190.103,44.757 L192.758,47.539 L192.758,82.664 L190.232,85.193 L190.232,85.32 L201.223,93.404 L210.699,83.553 L210.699,83.422 L206.658,80.894 L206.658,44.757 L209.436,41.979 L211.331,43.24 L208.809,45.769 L208.809,79.129 L209.943,79.758 L209.943,46.272 L212.215,43.874 L218.533,47.918 L218.533,82.539 L215.883,85.193 L215.883,85.32 L227.633,93.154 L236.603,83.801 L236.603,83.674 L232.434,81.275 L232.434,44.506 L234.961,41.854 L236.857,43.24 L234.58,45.643 L234.58,79.631 L235.72,80.135 L235.72,46.15 L237.742,43.999 L244.312,48.17 L244.312,85.824 L255.052,93.154 L266.927,81.019 L265.667,79.885" fill="#1A1919"/>
    <path d="M229.4,94.416 L230.413,95.304 L239.382,85.953 L238.5,85.193 L229.4,94.416" fill="#1A1919"/>
    <path d="M202.994,94.924 L203.88,95.683 L213.733,85.574 L212.726,84.814 L202.994,94.924" fill="#1A1919"/>
    <path d="M177.721,78.496 L178.857,79.129 L178.857,47.285 L180.754,45.643 L179.997,44.886 L177.721,46.78 L177.721,78.496" fill="#1A1919"/>
    <path d="M174.688,94.541 L175.575,95.304 L187.07,83.674 L186.187,82.789 L174.688,94.541" fill="#1A1919"/>
    <path d="M124.653,48.551 L119.22,57.642 L127.688,72.685 C129.286,75.525 130.214,76.599 130.973,77.103 L131.352,76.724 C130.591,75.523 129.646,74.15 128.571,72.178 C128.571,72.178 122.813,61.617 120.609,57.642 L125.412,49.685 C131.917,49.685 138.869,44.947 139.061,36.671 L138.047,35.662 C138.047,42.841 132.488,48.929 124.653,48.551" fill="#1A1919"/>
    <path d="M107.848,36.04 L106.207,35.281 C107.47,36.419 108.83,38.01 110.248,40.842 L115.81,51.961 L116.442,50.949 L111.385,40.716 C109.738,37.379 108.859,36.797 107.848,36.04" fill="#1A1919"/>
    <path d="M134.129,77.486 L132.358,80.388 C129.328,80.135 127.591,77.613 124.402,71.799 L116.568,57.519 L123.388,46.151 C124.052,46.252 124.809,46.272 125.538,46.272 C132.487,46.272 135.459,41.221 136.026,34.146 L135.52,33.893 C134.005,35.031 132.358,35.661 129.455,35.661 C126.55,35.661 124.212,34.274 122.756,32.88 L116.568,42.862 C117.677,43.885 119.41,45.102 121.748,45.769 L115.683,55.879 L108.099,41.979 C103.655,33.829 101.216,32.754 96.349,32.754 L86.999,48.297 L88.639,49.308 L91.043,45.39 C91.911,45.484 92.647,45.734 93.317,46.022 L90.536,50.443 L91.546,51.074 L94.327,46.651 C95.096,47.234 95.727,47.953 96.475,49.308 L106.964,68.26 L100.139,79.756 C99.797,79.746 99.376,79.756 99.003,79.756 C91.418,79.756 87.189,87.086 86.622,92.519 L87.122,93.027 C88.768,91.508 90.851,90.498 94.202,90.498 C97.55,90.498 99.886,91.383 102.036,93.027 L108.48,82.41 C106.728,81.314 104.93,80.26 101.785,79.885 L107.848,69.779 L109.111,72.178 L105.447,78.115 L106.585,78.496 L109.741,73.314 L116.442,85.193 C118.98,89.693 123.137,93.156 126.42,93.66 L135.647,78.371 L134.129,77.486" fill="#1A1919"/>
    <path d="M128.698,94.668 L129.708,95.304 L136.913,82.918 L136.537,81.398 L128.698,94.668" fill="#1A1919"/>
    <path d="M103.931,94.287 L104.941,94.924 L111.259,84.306 L110.248,83.674 L103.931,94.287" fill="#1A1919"/>
    <path d="M376.476,41.095 L376.729,40.966 C377.362,42.329 377.998,43.617 378.625,44.886 L378.625,60.426 L379.766,59.922 L379.766,47.158 C381.857,51.199 384.04,54.955 386.586,59.164 L376.476,63.967 L376.476,41.095 z M394.925,75.588 L387.597,83.043 L376.476,75.842 L376.476,65.986 L399.978,54.359 L386.839,32.251 C381.279,36.29 370.538,41.674 362.578,44.886 L362.578,77.99 L360.052,79.885 L360.052,80.135 L379.891,93.156 L396.188,76.724 L394.925,75.588" fill="#1A1919"/>
    <path d="M161.679,56.258 C158.563,56.258 155.254,56.664 152.201,57.642 C150.349,52.219 148.154,48.17 144.111,44.757 L144.111,44.631 C145.173,44.918 146.271,45.011 147.271,45.011 C150.25,45.011 152.944,43.513 154.854,40.966 L156.749,42.23 C154.916,44.478 152.828,46.432 149.294,47.03 L149.925,47.916 C153.356,47.377 155.986,45.39 157.758,42.991 L161.679,45.514 L161.679,56.258 z M161.679,60.426 C155.21,60.426 152.453,65.478 152.453,71.545 C152.453,76.724 155.486,80.515 157.379,81.91 L158.264,81.398 C156.749,79.885 153.715,76.851 153.715,71.418 C153.715,65.986 156.307,61.564 161.679,61.564 L161.679,82.031 L157.254,84.814 C153.846,82.41 150.174,78.115 150.174,71.924 C150.174,62.826 154.976,58.152 161.679,58.152 L161.679,60.426 z M183.156,79.885 L180.246,82.916 L175.575,80.01 L175.575,45.893 L178.228,43.24 L178.228,42.991 L162.938,32.123 C159.213,35.911 156.449,37.811 153.593,37.811 C151.44,37.811 149.294,37.049 147.903,35.534 L141.334,44.378 L141.334,44.506 C146.054,48.078 149.172,52.73 150.809,58.152 C143.584,60.916 137.793,65.986 137.793,75.717 C137.793,85.32 143.933,91.164 147.903,93.281 L161.424,84.435 L163.191,85.824 L149.545,95.176 L150.558,95.804 L164.205,86.582 L172.793,93.156 L184.543,81.15 L183.156,79.885" fill="#1A1919"/>
    <path d="M71.933,23.701 L71.933,43.668 L73.359,43.668 L73.359,25.126 C83.026,24.336 89.521,16.729 90.789,8.963 L89.684,7.857 C88.26,16.551 81.007,23.701 71.933,23.701" fill="#1A1919"/>
    <path d="M71.933,63.629 L71.933,94.367 L73.359,94.847 L73.359,64.898 L78.429,64.898 L82.866,49.844 L81.916,48.736 L77.48,63.629 L71.933,63.629" fill="#1A1919"/>
    <path d="M16.165,14.667 C21.079,14.667 27.063,16.886 32.637,16.886 C34.18,16.886 36.284,16.661 38.029,15.935 L38.187,16.253 C36.482,17.261 34.855,18.265 33.272,19.264 C25.824,19.582 22.299,17.363 15.21,17.363 C9.82,17.363 7.288,20.215 5.07,24.495 L6.497,25.445 C8.555,21.008 11.247,18.947 15.37,18.947 C19.786,18.947 26.935,20.847 31.056,20.692 C20.756,27.343 15.842,32.636 15.842,42.239 L15.842,47.15 L14.892,47.15 C3.806,47.15 0.949,55.07 0.949,66.162 L2.058,66.64 C4.118,62.678 7.288,60.937 12.676,60.937 L15.842,60.937 L15.842,63.785 L12.356,63.785 C8.395,63.785 6.335,64.734 4.594,67.906 L6.021,68.543 C7.132,66.162 9.027,65.373 12.356,65.373 L15.842,65.373 L15.842,79.631 C15.842,88.187 12.952,92.304 10.364,93.838 L11.181,94.89 C22.006,90.82 31.53,82.642 31.53,71.236 L31.53,34.795 C31.53,24.037 42.031,15.773 54.506,5.797 L53.715,4.844 C52.13,5.716 50.385,6.272 47.533,6.272 C40.719,6.272 27.53,1.201 19.966,1.201 C6.497,1.201 2.362,12.444 0.633,21.954 L3.011,23.225 C5.543,17.363 8.943,14.667 16.165,14.667" fill="#1A1919"/>
    <path d="M72.886,121.935 L74.309,123.047 L89.363,97.853 L88.094,96.902 L72.886,121.935" fill="#1A1919"/>
    <path d="M67.025,47.15 L55.14,47.15 L55.14,14.035 L55.612,13.875 C56.285,14.66 57.021,15.401 57.834,16.094 L57.834,43.979 L59.263,43.979 L59.263,17.204 C61.437,18.749 64.034,19.971 67.025,20.534 L67.025,47.15 z M67.025,96.111 C58.943,93.101 49.647,91.834 39.294,91.834 C37.844,91.834 35.19,92.121 33.59,92.308 L33.59,92.148 C47.954,85.586 55.14,78.556 55.14,65.531 L55.14,60.777 L57.834,60.777 L57.834,67.429 C57.834,75.351 54.348,83.912 45.633,88.82 L47.691,88.978 C55.775,84.226 59.263,75.826 59.263,67.748 L59.263,60.777 L67.025,60.777 L67.025,96.111 z M83.66,93.416 L79.064,101.179 C76.688,99.756 71.933,97.695 69.397,96.902 L69.397,60.777 L74.945,60.777 L79.064,47.15 L69.397,47.15 L69.397,20.847 C69.919,20.885 70.447,20.847 70.982,20.847 C80.333,20.847 86.156,13.529 86.826,5.956 L86.354,5.637 C84.45,6.589 81.997,7.38 78.43,7.38 C75.186,7.38 70.032,4.133 66.707,0.408 C50.701,14.193 36.92,23.47 36.92,34.635 L36.92,71.709 C36.92,82.783 30.345,89.873 25.35,93.89 C12.994,97.539 1.269,106.256 -0,120.353 L2.058,121.303 C4.334,114.478 9.663,110.533 18.38,109.894 L18.38,110.054 C10.3,113.383 6.814,116.713 4.278,123.049 L5.703,124 C8.555,117.187 13.308,112.59 24.243,109.263 C26.777,108.945 30.133,108.627 32.797,108.627 C49.594,108.627 64.329,115.603 70.666,120.197 L86.036,94.845 L83.66,93.416" fill="#1A1919"/>
    <path d="M262.474,27.434 C262.458,27.51 262.435,27.584 262.392,27.653 C262.392,27.653 262.425,27.571 262.474,27.434" fill="#1A1919"/>
    <path d="M272.778,26.272 C272.778,26.272 273.626,26.244 274.945,25.067 C274.267,25.653 273.542,26.09 272.778,26.272" fill="#1A1919"/>
    <path d="M268.9,25.407 C268.9,25.407 269.746,25.379 271.062,24.207 C270.385,24.789 269.663,25.227 268.9,25.407" fill="#1A1919"/>
    <path d="M288.552,26.272 C287.791,26.092 287.07,25.656 286.394,25.075 C287.708,26.244 288.552,26.272 288.552,26.272" fill="#1A1919"/>
    <path d="M292.427,25.407 C291.664,25.227 290.941,24.789 290.263,24.205 C291.581,25.379 292.427,25.407 292.427,25.407" fill="#1A1919"/>
    <path d="M107.653,6.066 L110.213,6.066 L112.154,15.509 L112.194,15.509 L114.174,6.066 L116.835,6.066 L118.835,15.509 L118.875,15.509 L120.796,6.066 L123.376,6.066 L120.216,20.509 L117.555,20.509 L115.535,10.628 L115.495,10.628 L113.314,20.509 L110.674,20.509 L107.653,6.066" fill="#1A1919"/>
    <path d="M127.693,15.028 L130.434,15.028 L129.094,9.187 L129.054,9.187 L127.693,15.028 z M123.753,20.509 L127.333,6.066 L130.874,6.066 L134.355,20.509 L131.714,20.509 L131.014,17.468 L127.193,17.468 L126.413,20.509 L123.753,20.509" fill="#1A1919"/>
    <path d="M142.354,10.088 C141.894,8.727 141.294,8.147 140.334,8.147 C139.354,8.147 138.813,8.747 138.813,9.727 C138.813,11.908 144.975,12.068 144.975,16.589 C144.975,19.069 143.274,20.71 140.374,20.71 C138.133,20.71 136.393,19.489 135.653,16.649 L138.374,16.068 C138.693,17.809 139.694,18.429 140.514,18.429 C141.474,18.429 142.214,17.789 142.214,16.709 C142.214,13.988 136.053,13.948 136.053,9.907 C136.053,7.426 137.533,5.866 140.394,5.866 C142.854,5.866 144.354,7.327 144.835,9.367 L142.354,10.088" fill="#1A1919"/>
    <path d="M147.533,20.509 L147.533,6.066 L150.293,6.066 L150.293,11.828 L154.194,11.828 L154.194,6.066 L156.955,6.066 L156.955,20.509 L154.194,20.509 L154.194,14.268 L150.293,14.268 L150.293,20.509 L147.533,20.509" fill="#1A1919"/>
    <path d="M160.553,6.066 L163.313,6.066 L163.313,20.509 L160.553,20.509 z" fill="#1A1919"/>
    <path d="M166.913,20.509 L166.913,6.066 L169.934,6.066 L173.774,14.629 L173.814,14.629 L173.814,6.066 L176.335,6.066 L176.335,20.509 L173.694,20.509 L169.474,11.187 L169.434,11.187 L169.434,20.509 L166.913,20.509" fill="#1A1919"/>
    <path d="M186.674,19.309 C185.934,20.149 185.134,20.71 184.093,20.71 C181.413,20.71 179.532,19.43 179.532,15.869 L179.532,10.708 C179.532,7.146 181.413,5.866 184.093,5.866 C186.914,5.866 188.435,7.487 188.534,10.767 L185.774,10.767 C185.774,8.907 185.094,8.307 184.093,8.307 C182.993,8.307 182.293,8.747 182.293,10.347 L182.293,16.228 C182.293,17.829 182.993,18.269 184.093,18.269 C185.134,18.269 185.774,17.509 185.774,16.268 L185.774,15.388 L183.833,15.388 L183.833,13.108 L188.534,13.108 L188.534,20.509 L187.094,20.509 L186.674,19.309" fill="#1A1919"/>
    <path d="M200.455,6.066 L200.455,8.507 L197.234,8.507 L197.234,20.509 L194.473,20.509 L194.473,8.507 L191.252,8.507 L191.252,6.066 L200.455,6.066" fill="#1A1919"/>
    <path d="M205.413,16.228 C205.413,17.829 206.113,18.269 207.213,18.269 C208.314,18.269 209.014,17.829 209.014,16.228 L209.014,10.347 C209.014,8.747 208.314,8.307 207.213,8.307 C206.113,8.307 205.413,8.747 205.413,10.347 L205.413,16.228 z M202.652,10.708 C202.652,7.146 204.533,5.866 207.213,5.866 C209.894,5.866 211.774,7.146 211.774,10.708 L211.774,15.869 C211.774,19.43 209.894,20.71 207.213,20.71 C204.533,20.71 202.652,19.43 202.652,15.869 L202.652,10.708" fill="#1A1919"/>
    <path d="M214.573,20.509 L214.573,6.066 L217.593,6.066 L221.434,14.629 L221.474,14.629 L221.474,6.066 L223.995,6.066 L223.995,20.509 L221.354,20.509 L217.133,11.187 L217.093,11.187 L217.093,20.509 L214.573,20.509" fill="#1A1919"/>
  </g>
</svg>
